<svg xmlns="http://www.w3.org/2000/svg" xmlns:xlink="http://www.w3.org/1999/xlink" width="205" height="53.728" viewBox="0 0 205 53.728">
  <defs>
    <clipPath id="clip-path">
      <rect id="長方形_68" data-name="長方形 68" width="205" height="53.728" transform="translate(0 0)" fill="none"/>
    </clipPath>
  </defs>
  <g id="グループ_37" data-name="グループ 37" transform="translate(0 0)" clip-path="url(#clip-path)">
    <path id="パス_39" data-name="パス 39" d="M36.327,22.206A16.913,16.913,0,1,1,19.413,5.292,16.914,16.914,0,0,1,36.327,22.206Z" fill="none" stroke="#fff" stroke-miterlimit="2" stroke-width="5"/>
    <circle id="楕円形_11" data-name="楕円形 11" cx="12.238" cy="12.238" r="12.238" transform="translate(16.007 20.3)" fill="none" stroke="#fff" stroke-miterlimit="2" stroke-width="5"/>
    <path id="パス_40" data-name="パス 40" d="M46.718,42.409a8.6,8.6,0,1,1-8.6-8.6A8.6,8.6,0,0,1,46.718,42.409Z" fill="none" stroke="#fff" stroke-miterlimit="2" stroke-width="5"/>
    <path id="パス_41" data-name="パス 41" d="M49.417,26.09a9.036,9.036,0,0,1-5.664-1.6,3.829,3.829,0,0,1-1.741-3.073,2.1,2.1,0,0,1,.538-1.479,1.914,1.914,0,0,1,1.486-.588,1.961,1.961,0,0,1,1.869,1.3q.809,1.741,3.654,1.742a11.046,11.046,0,0,0,4.715-1.063q2.364-1.089,2.365-2.392a2.265,2.265,0,0,0-1.473-2.351,14.7,14.7,0,0,0-4.206-.481,11.346,11.346,0,0,1-4.389-.921q-2.619-1.174-2.576-3.37.041-2.762,2.944-5.062a10.068,10.068,0,0,1,6.4-2.3,11.882,11.882,0,0,1,3.426.637Q59.3,5.884,59.3,6.918a1.89,1.89,0,0,1-.509,1.3,1.863,1.863,0,0,1-1.459.638,10.537,10.537,0,0,1-1.99-.283,10.5,10.5,0,0,0-2-.284,7.491,7.491,0,0,0-3.469.878q-1.7.879-1.7,1.912a1.033,1.033,0,0,0,.517.885,3.75,3.75,0,0,0,1.551.489l3.61.2a8.565,8.565,0,0,1,4.97,1.769,5.827,5.827,0,0,1,2.011,4.7q0,3.654-4.163,5.537A17.473,17.473,0,0,1,49.417,26.09Z" fill="none" stroke="#fff" stroke-miterlimit="2" stroke-width="5"/>
    <path id="パス_42" data-name="パス 42" d="M66.551,12.7q2.137-2.478,4.05-2.478a3.486,3.486,0,0,1,3.2,1.656,5.906,5.906,0,0,1,1.912-1.146,6.55,6.55,0,0,1,2.264-.383,3.732,3.732,0,0,1,3.767,2.762,30.747,30.747,0,0,1,.61,3.836q.4,2.295,1.018,7.647a1.526,1.526,0,0,1-.552,1.331,2.121,2.121,0,0,1-1.429.524,1.752,1.752,0,0,1-1.912-1.614q-.255-1.458-.524-4.121-.284-2.916-.467-4.135-.382-2.534-.977-2.534a4.584,4.584,0,0,0-1.487.651,10.824,10.824,0,0,0-1.7,1.119,40.05,40.05,0,0,0,.383,4.644,40.338,40.338,0,0,1,.4,4.644,1.8,1.8,0,0,1-.553,1.346,2.1,2.1,0,0,1-2.8,0,1.8,1.8,0,0,1-.552-1.346,46.815,46.815,0,0,0-.347-4.75A47.094,47.094,0,0,1,70.5,15.6a5.418,5.418,0,0,0-.155-1.445,11.585,11.585,0,0,0-3.3,3.158q-.07.1-.24.3-.057,2.862-.057,4.489c0,.265-.009.621-.029,1.07s-.028.78-.028,1a1.394,1.394,0,0,1-.623,1.2,2.326,2.326,0,0,1-1.4.41,1.6,1.6,0,0,1-1.629-1.047,6.252,6.252,0,0,1-.3-2.251V17.212q0-.707-.057-2.074t-.057-2.074a5.542,5.542,0,0,1,.454-2.28q.552-1.273,1.557-1.274a1.96,1.96,0,0,1,1.416.616,1.869,1.869,0,0,1,.623,1.352A5.377,5.377,0,0,0,66.551,12.7Z" fill="none" stroke="#fff" stroke-miterlimit="2" stroke-width="5"/>
    <path id="パス_43" data-name="パス 43" d="M89.842,18.586q0,.807.05,2.592t.05,2.591a1.8,1.8,0,0,1-.552,1.352,2.116,2.116,0,0,1-2.8,0,1.8,1.8,0,0,1-.553-1.352q0-.808-.048-2.591t-.05-2.592q0-1.26.141-3.157t.142-3.158a1.8,1.8,0,0,1,.552-1.353,2.119,2.119,0,0,1,2.8,0,1.8,1.8,0,0,1,.552,1.353q0,1.26-.142,3.158T89.842,18.586Zm-1.2-10.379A2.253,2.253,0,0,1,87.067,7.6a2,2,0,0,1,0-2.974,2.257,2.257,0,0,1,1.572-.609,2.232,2.232,0,0,1,1.565.609,2.009,2.009,0,0,1,0,2.974A2.227,2.227,0,0,1,88.639,8.207Z" fill="none" stroke="#fff" stroke-miterlimit="2" stroke-width="5"/>
    <path id="パス_44" data-name="パス 44" d="M97.9,23.146q0,2.689-1.954,2.69a1.934,1.934,0,0,1-1.4-.538,1.855,1.855,0,0,1-.552-1.388V4.327a1.71,1.71,0,0,1,.6-1.345,2.1,2.1,0,0,1,1.4-.482,1.928,1.928,0,0,1,1.373.5A1.724,1.724,0,0,1,97.9,4.327Z" fill="none" stroke="#fff" stroke-miterlimit="2" stroke-width="5"/>
    <path id="パス_45" data-name="パス 45" d="M108.62,25.878a8.985,8.985,0,0,1-5.538-1.614,5.917,5.917,0,0,1-2.378-5.027,9.721,9.721,0,0,1,1.883-6.061,6.741,6.741,0,0,1,5.65-2.747,9.331,9.331,0,0,1,4.092.793,3.432,3.432,0,0,1,2.138,3.257,3.386,3.386,0,0,1-1.741,2.761,22.583,22.583,0,0,1-3.186,1.614l-4.772,2.111a4.291,4.291,0,0,0,1.643,1.1,6.936,6.936,0,0,0,5.423-.411,4.058,4.058,0,0,1,1.883-.693,1.283,1.283,0,0,1,1.473,1.43q0,1.614-2.366,2.634A10.564,10.564,0,0,1,108.62,25.878Zm-.383-12.022a3.173,3.173,0,0,0-2.252.878,6.126,6.126,0,0,0-1.5,2.634q1.6-.694,3.186-1.374a23.341,23.341,0,0,0,3.044-1.6A5,5,0,0,0,108.237,13.856Z" fill="none" stroke="#fff" stroke-miterlimit="2" stroke-width="5"/>
    <path id="パス_46" data-name="パス 46" d="M133.2,7.838c-.169,0-.438-.016-.807-.05s-.665-.048-.892-.048H130.4a6.658,6.658,0,0,0-.014,1q0,10.14-1.429,14.769-1.05,3.412-3.81,3.413a8.994,8.994,0,0,1-5.211-1.813q-2.916-2.025-2.916-4.758,0-2.208,2-2.209t2,2.182q0,.836,1.436,1.791a4.938,4.938,0,0,0,2.7.955q.51,0,.736-1.883.057-.453.312-4.4.213-3.229.213-8.044c0-.132-.015-.438-.043-.92l-.326.014c-.416.019-.972.014-1.671-.014q-1.26-.057-1.67-.057a2.07,2.07,0,0,1-1.417-.509,1.825,1.825,0,0,1-.623-1.43q0-1.926,2.535-1.926.481,0,1.43.036t1.416.035q.892,0,2.669-.1t2.67-.1q3.794,0,3.794,2.11a1.945,1.945,0,0,1-.509,1.317A1.89,1.89,0,0,1,133.2,7.838Z" fill="none" stroke="#fff" stroke-miterlimit="2" stroke-width="5"/>
    <path id="パス_47" data-name="パス 47" d="M149.385,17.042q0,.948.014,2.86t.014,2.861q0,.3.05.885c.033.391.05.687.05.884a1.689,1.689,0,0,1-.574,1.31,2.026,2.026,0,0,1-1.409.517,1.8,1.8,0,0,1-1.714-1.062,10.789,10.789,0,0,1-3.752.666,6.347,6.347,0,0,1-3.384-.845,3.922,3.922,0,0,1-1.841-2.831,41.086,41.086,0,0,1-.552-6.3,23.866,23.866,0,0,1,.425-4.183,1.745,1.745,0,0,1,1.911-1.591,2.044,2.044,0,0,1,1.4.514,1.661,1.661,0,0,1,.58,1.3,14.292,14.292,0,0,1-.205,1.942,14.205,14.205,0,0,0-.206,2.01q0,1.983.135,3.466a14.189,14.189,0,0,0,.4,2.453,4.472,4.472,0,0,0,.687.239,2.587,2.587,0,0,0,.644.085,14.813,14.813,0,0,0,3.455-.454q0-1.089-.014-2.477-.027-1.658-.029-2.38a40.337,40.337,0,0,1,.27-5.012,1.732,1.732,0,0,1,1.925-1.685,2.094,2.094,0,0,1,1.431.524,1.559,1.559,0,0,1,.552,1.317Q149.384,17.452,149.385,17.042Z" fill="none" stroke="#fff" stroke-miterlimit="2" stroke-width="5"/>
    <path id="パス_48" data-name="パス 48" d="M163.22,26.232a1.741,1.741,0,0,1-1.94-1.714q-.2-1.458-.4-2.93a21.862,21.862,0,0,1-.212-2.932q0-.368.05-1.26c.032-.594.05-1.015.05-1.26,0-.066.009-.233.028-.5s.028-.488.028-.658q0-1.176-.567-1.176a3.154,3.154,0,0,0-2.379,1.56,11.751,11.751,0,0,0-1.827,3.953q-.025.479-.118,1.276a10.585,10.585,0,0,0-.08,1.277,12.128,12.128,0,0,1-.091,1.227,11.837,11.837,0,0,0-.092,1.225,1.836,1.836,0,0,1-.559,1.371,1.947,1.947,0,0,1-1.41.544,1.92,1.92,0,0,1-1.4-.541,1.83,1.83,0,0,1-.553-1.363c0-.268-.028-.675-.084-1.218s-.085-.949-.085-1.219q0-1.383.2-3.85t.2-3.85q0-.432-.049-1.291t-.05-1.276a1.734,1.734,0,0,1,.573-1.334,2.008,2.008,0,0,1,1.41-.526q1.853,0,1.981,2.223l.014.156a6.129,6.129,0,0,1,4.362-2.082,3.712,3.712,0,0,1,3.7,2.237,11.378,11.378,0,0,1,.68,4.489v1.006c-.01.434-.014.741-.014.92a17.219,17.219,0,0,0,.3,2.846,17.17,17.17,0,0,1,.3,2.832,1.717,1.717,0,0,1-.566,1.316A1.985,1.985,0,0,1,163.22,26.232Z" fill="none" stroke="#fff" stroke-miterlimit="2" stroke-width="5"/>
    <path id="パス_49" data-name="パス 49" d="M171.672,18.586q0,.807.05,2.592t.05,2.591a1.8,1.8,0,0,1-.552,1.352,2.116,2.116,0,0,1-2.8,0,1.8,1.8,0,0,1-.553-1.352q0-.808-.048-2.591t-.05-2.592q0-1.26.141-3.157t.142-3.158a1.8,1.8,0,0,1,.552-1.353,2.119,2.119,0,0,1,2.8,0,1.8,1.8,0,0,1,.552,1.353q0,1.26-.142,3.158T171.672,18.586Zm-1.2-10.379A2.253,2.253,0,0,1,168.9,7.6a2,2,0,0,1,0-2.974,2.257,2.257,0,0,1,1.572-.609,2.232,2.232,0,0,1,1.565.609,2.009,2.009,0,0,1,0,2.974A2.227,2.227,0,0,1,170.469,8.207Z" fill="none" stroke="#fff" stroke-miterlimit="2" stroke-width="5"/>
    <path id="パス_50" data-name="パス 50" d="M181.2,26.061a6.29,6.29,0,0,1-4.5-1.8,7.234,7.234,0,0,1-2.167-5.253,8.652,8.652,0,0,1,1.714-5.579,7.048,7.048,0,0,1,5.99-2.888,5.309,5.309,0,0,1,4.5,2.265,8.3,8.3,0,0,1,1.5,5.055,9.026,9.026,0,0,1-1.757,5.608A6.292,6.292,0,0,1,181.2,26.061Zm.849-11.78a3.07,3.07,0,0,0-2.747,1.586,5.763,5.763,0,0,0-.849,3.143,3.4,3.4,0,0,0,.963,2.6,2.513,2.513,0,0,0,1.784.723,3.046,3.046,0,0,0,2.138-.836,3.7,3.7,0,0,0,1.1-2.648Q184.628,14.3,182.052,14.281Z" fill="none" stroke="#fff" stroke-miterlimit="2" stroke-width="5"/>
    <path id="パス_51" data-name="パス 51" d="M202.486,15.017q-.127,2.167-1.968,2.167a1.6,1.6,0,0,1-1.784-1.841l-.071-1.43a5.817,5.817,0,0,0-4.56,3.271l.014,7.122a1.781,1.781,0,0,1-.552,1.339,1.938,1.938,0,0,1-1.4.53,1.685,1.685,0,0,1-1.36-.566,1.889,1.889,0,0,1-.454-1.3V15.031q0-.438.029-1.309t.028-1.31a1.912,1.912,0,0,1,.475-1.324,1.717,1.717,0,0,1,1.352-.531,1.74,1.74,0,0,1,1.869,1.614,9.091,9.091,0,0,1,5.565-1.869q2.832,0,2.832,3.766C202.5,14.55,202.495,14.867,202.486,15.017Z" fill="none" stroke="#fff" stroke-miterlimit="2" stroke-width="5"/>
    <path id="パス_52" data-name="パス 52" d="M66.768,44.513c1.477,2.682,4.455,4.244,8.067,4.815a.7.7,0,0,1,.654.718,1.043,1.043,0,0,1-.021.254.8.8,0,0,1-.823.717A1.21,1.21,0,0,1,74.37,51,12.05,12.05,0,0,1,65.5,45.21a7.261,7.261,0,0,1-1.184,1.942A11.456,11.456,0,0,1,57.327,51a1.022,1.022,0,0,1-.252.021.792.792,0,0,1-.846-.7.945.945,0,0,1-.021-.232.674.674,0,0,1,.634-.7,10.955,10.955,0,0,0,6.04-2.936,6.886,6.886,0,0,0,1.267-1.943H56.631c-.4,0-.613-.275-.613-.718s.211-.739.613-.739h2.09V39.74c0-1.246.549-1.689,1.795-1.689H64.93V36.89c0-.465.3-.656.76-.656.528,0,.782.191.782.656v1.161h4.709c1.246,0,1.795.443,1.795,1.689v3.316h2.048c.381,0,.613.3.613.739s-.232.718-.613.718Zm-3.506-8c0,.422-.3.612-.781.612-.444,0-.761-.19-.761-.612V35.031H56.778c-.359,0-.591-.295-.591-.739,0-.423.232-.718.591-.718H61.72V32.306c0-.422.317-.611.761-.611.485,0,.781.189.781.611v1.268h5.047V32.306c0-.422.295-.611.76-.611.486,0,.782.189.782.611v1.268h5.026c.38,0,.591.275.591.718s-.211.739-.591.739H69.851v1.478c0,.422-.3.612-.782.612-.465,0-.76-.19-.76-.612V35.031H63.262ZM60.9,39.466c-.423,0-.613.127-.613.57v3.02H64.55a22.724,22.724,0,0,0,.338-3.59Zm5.533,0a25.635,25.635,0,0,1-.318,3.59h5.3v-3.02c0-.443-.211-.57-.633-.57Z" fill="none" stroke="#fff" stroke-miterlimit="2" stroke-width="5"/>
    <path id="パス_53" data-name="パス 53" d="M95.455,31.63a1.656,1.656,0,0,1,1.225.486,22.41,22.41,0,0,0,8.279,6.336.861.861,0,0,1,.506.781.816.816,0,0,1-.084.38.779.779,0,0,1-.719.528,1.132,1.132,0,0,1-.549-.148,24.017,24.017,0,0,1-8.383-6.525c-.106-.106-.19-.17-.275-.17a.409.409,0,0,0-.254.149,23.709,23.709,0,0,1-8.488,6.694.755.755,0,0,1-.36.085.88.88,0,0,1-.76-.508.84.84,0,0,1-.105-.379.9.9,0,0,1,.527-.781,22.182,22.182,0,0,0,8.215-6.442A1.626,1.626,0,0,1,95.455,31.63ZM94.378,43.837a38.931,38.931,0,0,1-2.6,4.92c2.682-.168,5.363-.4,8.025-.781-.655-.781-1.352-1.541-2.007-2.2a.648.648,0,0,1-.19-.443.631.631,0,0,1,.295-.529.92.92,0,0,1,.571-.211.735.735,0,0,1,.57.232,39.347,39.347,0,0,1,4.393,5.111.707.707,0,0,1,.148.444.843.843,0,0,1-.338.654.96.96,0,0,1-.549.19.75.75,0,0,1-.633-.317c-.338-.506-.74-1.056-1.162-1.6-4.182.655-9.018,1.056-13.473,1.31h-.043a.788.788,0,0,1-.8-.8V49.75c0-.485.232-.782.675-.8.887-.021,1.795-.064,2.682-.107a27.951,27.951,0,0,0,2.555-5H86.9c-.379,0-.612-.317-.612-.76,0-.465.233-.781.612-.781h17.106c.4,0,.613.316.613.76,0,.464-.211.781-.613.781Zm5.428-5.6c.38,0,.591.358.591.781s-.211.782-.591.782h-8.68c-.38,0-.591-.36-.591-.782s.211-.781.591-.781Z" fill="none" stroke="#fff" stroke-miterlimit="2" stroke-width="5"/>
    <path id="パス_54" data-name="パス 54" d="M115.906,36.826c-.381,0-.571-.317-.571-.739s.19-.7.571-.7h6.779c.359,0,.549.274.549.7s-.19.739-.549.739Zm.739-3.084c-.338,0-.55-.3-.55-.7,0-.423.212-.7.55-.7h5.575c.359,0,.57.274.57.7,0,.4-.211.7-.57.7Zm0,6.125c-.359,0-.528-.338-.528-.718s.169-.676.528-.676h5.491c.338,0,.527.3.527.676s-.189.718-.527.718Zm0,3.02c-.359,0-.528-.338-.528-.7,0-.381.169-.7.528-.7h5.491c.338,0,.527.3.527.675s-.189.718-.527.718Zm6.018,6.378c0,1.077-.527,1.52-1.626,1.52h-3.231c-1.1,0-1.625-.443-1.625-1.52V46.013c0-1.078.527-1.5,1.625-1.5h3.231c1.1,0,1.626.422,1.626,1.5Zm-4.435-3.443c-.379,0-.57.106-.57.508v2.618c0,.4.191.507.57.507h2.387c.38,0,.57-.106.57-.507V46.33c0-.4-.19-.508-.57-.508Zm5.724-6.187c-.38,0-.591-.274-.591-.718,0-.423.211-.718.591-.718H128.2V34.715c-1.331.253-2.682.422-3.907.548h-.085a.658.658,0,0,1-.7-.675v-.106a.613.613,0,0,1,.633-.654,38.727,38.727,0,0,0,8.742-1.838.833.833,0,0,1,.317-.063.668.668,0,0,1,.655.464.813.813,0,0,1,.085.359.653.653,0,0,1-.465.634,31.971,31.971,0,0,1-3.759,1.034V38.2h4.519c.38,0,.592.295.592.718s-.212.718-.592.718h-4.519v3.443h2.344c1.267,0,1.858.443,1.858,1.689V49.1c0,1.246-.591,1.689-1.858,1.689h-6.124c-1.267,0-1.858-.443-1.858-1.689V44.767c0-1.246.591-1.689,1.858-1.689h2.26V39.635Zm7.729,9.693c.465,0,.676-.127.676-.592V45.1c0-.465-.211-.592-.676-.592h-5.364c-.464,0-.675.127-.675.592v3.631c0,.465.211.592.675.592Z" fill="none" stroke="#fff" stroke-miterlimit="2" stroke-width="5"/>
    <path id="パス_55" data-name="パス 55" d="M147.846,42.064a23.479,23.479,0,0,1-2.112,1.246.966.966,0,0,1-.423.106.663.663,0,0,1-.59-.381,1.115,1.115,0,0,1-.106-.422.657.657,0,0,1,.4-.592,22.056,22.056,0,0,0,4.773-3.168h-4.541a.544.544,0,0,1-.57-.611c0-.4.19-.656.57-.656h3.738v-2.28H146.03a.661.661,0,0,1,0-1.31h2.956V32.244c0-.381.317-.592.739-.592.444,0,.74.211.74.592V34h1.9a.562.562,0,0,1,.571.634.6.6,0,0,1-.571.676h-1.9v2.28h.676a21.082,21.082,0,0,0,3.42-4.645.714.714,0,0,1,.634-.381.836.836,0,0,1,.38.085.748.748,0,0,1,.422.634.614.614,0,0,1-.084.338,22.443,22.443,0,0,1-2.83,3.969H154.6a.511.511,0,0,1,.527.57V38.2a.635.635,0,0,1-.612.654h-2.661a28.014,28.014,0,0,1-2.26,1.965h3.084a1.1,1.1,0,0,1,1.225,1.055,1.081,1.081,0,0,1-.36.8,11.285,11.285,0,0,1-2.512,1.816v.465c1.2-.127,2.323-.317,3.315-.486a.4.4,0,0,1,.148-.022.731.731,0,0,1,.633.74.652.652,0,0,1-.57.655c-1.055.189-2.28.38-3.526.527v2.978c0,1.268-.7,1.732-1.986,1.732a9.211,9.211,0,0,1-1.731-.148.654.654,0,0,1-.528-.675.724.724,0,0,1,.021-.212.654.654,0,0,1,.654-.591.266.266,0,0,1,.127.021,6.252,6.252,0,0,0,1.183.148c.655,0,.782-.085.782-.655V46.541c-1.373.127-2.767.232-4.076.316h-.043c-.379,0-.633-.232-.676-.7v-.1c0-.4.211-.655.549-.655,1.373-.042,2.83-.127,4.246-.275v-1.1c0-.359.316-.549.76-.549h.042a7.854,7.854,0,0,0,1.668-1.076.313.313,0,0,0,.106-.17c0-.1-.127-.168-.3-.168Zm14.867-5.111a21.023,21.023,0,0,1-.676,4.455,14.521,14.521,0,0,1-1.816,4.14,15.048,15.048,0,0,0,3.928,3.907.774.774,0,0,1,.338.633.992.992,0,0,1-.887.951.83.83,0,0,1-.465-.17,17.57,17.57,0,0,1-3.865-3.948,18.087,18.087,0,0,1-4.518,4.012,1.1,1.1,0,0,1-.613.19.77.77,0,0,1-.633-.338.809.809,0,0,1-.17-.506.817.817,0,0,1,.381-.7,16.4,16.4,0,0,0,4.666-4.076,18.074,18.074,0,0,1-1.857-5.28,13.361,13.361,0,0,1-.866,1.415.638.638,0,0,1-.55.3.91.91,0,0,1-.823-.8.9.9,0,0,1,.169-.487,20.134,20.134,0,0,0,3.062-8.341c.084-.444.316-.612.676-.612a.685.685,0,0,1,.211.02c.443.064.676.275.676.656v.147a27.67,27.67,0,0,1-.676,3h5.2a.613.613,0,0,1,.613.7c0,.422-.191.739-.592.739Zm-4.773,0c-.127.422-.295.824-.465,1.246a21.86,21.86,0,0,0,1.859,5.828,14.634,14.634,0,0,0,1.479-4.054,20.8,20.8,0,0,0,.359-3.02Z" fill="none" stroke="#fff" stroke-miterlimit="2" stroke-width="5"/>
    <path id="パス_56" data-name="パス 56" d="M193.131,49.033c.381,0,.592.316.592.739s-.211.739-.592.739H175.055c-.381,0-.592-.317-.592-.739s.211-.739.592-.739h8.109v-2.6h-6c-.359,0-.57-.316-.57-.739s.211-.7.57-.7h6V43.5c0-.359.233-.676.782-.676s.822.295.822.676V45h6.294c.359,0,.571.273.571.7s-.212.739-.571.739h-6.294v2.6ZM191.379,33.49c1.288,0,1.858.528,1.858,1.689v1.964c0,.423-.359.634-.866.634s-.823-.211-.823-.634V35.475c0-.4-.212-.528-.676-.528H177.42c-.443,0-.718.127-.718.528v1.646c0,.4-.338.613-.845.613s-.845-.211-.845-.633V35.179c0-1.161.57-1.689,1.838-1.689h6.272V32.138c0-.4.275-.654.845-.654s.8.253.8.654V33.49Zm-13.41,4.772c-.359,0-.57-.274-.57-.7,0-.4.211-.7.57-.7h12.27c.379,0,.57.3.57.7,0,.422-.191.7-.57.7h-7.328a24.87,24.87,0,0,1-1.647,2.788c2.3-.042,4.582-.085,6.883-.232-.463-.4-.908-.781-1.33-1.1a.492.492,0,0,1-.168-.379.7.7,0,0,1,.253-.528.829.829,0,0,1,.528-.212.846.846,0,0,1,.465.169,33.225,33.225,0,0,1,3.611,3.168.741.741,0,0,1,.19.485.871.871,0,0,1-.824.782.7.7,0,0,1-.549-.274c-.274-.3-.592-.613-.93-.93-4.033.359-8.637.465-12.839.486a.641.641,0,0,1-.612-.718v-.106a.573.573,0,0,1,.57-.633h.042c.972.021,1.943.021,2.935.021a17.569,17.569,0,0,0,1.648-2.788Z" fill="none" stroke="#fff" stroke-miterlimit="2" stroke-width="5"/>
    <path id="パス_57" data-name="パス 57" d="M36.327,22.206A16.913,16.913,0,1,1,19.413,5.292,16.914,16.914,0,0,1,36.327,22.206" fill="#ffbb67"/>
    <path id="パス_58" data-name="パス 58" d="M40.483,32.538A12.238,12.238,0,1,1,28.245,20.3,12.238,12.238,0,0,1,40.483,32.538" fill="#ffef00"/>
    <path id="パス_59" data-name="パス 59" d="M46.718,42.409a8.6,8.6,0,1,1-8.6-8.6,8.6,8.6,0,0,1,8.6,8.6" fill="#ffff9b"/>
    <path id="パス_60" data-name="パス 60" d="M49.417,26.09a9.036,9.036,0,0,1-5.664-1.6,3.829,3.829,0,0,1-1.741-3.073,2.1,2.1,0,0,1,.538-1.479,1.914,1.914,0,0,1,1.486-.588,1.961,1.961,0,0,1,1.869,1.3q.809,1.741,3.654,1.742a11.046,11.046,0,0,0,4.715-1.063q2.364-1.089,2.365-2.392a2.265,2.265,0,0,0-1.473-2.351,14.7,14.7,0,0,0-4.206-.481,11.346,11.346,0,0,1-4.389-.921q-2.619-1.174-2.576-3.37.041-2.762,2.944-5.062a10.068,10.068,0,0,1,6.4-2.3,11.882,11.882,0,0,1,3.426.637Q59.3,5.884,59.3,6.918a1.89,1.89,0,0,1-.509,1.3,1.863,1.863,0,0,1-1.459.638,10.537,10.537,0,0,1-1.99-.283,10.5,10.5,0,0,0-2-.284,7.491,7.491,0,0,0-3.469.878q-1.7.879-1.7,1.912a1.033,1.033,0,0,0,.517.885,3.75,3.75,0,0,0,1.551.489l3.61.2a8.565,8.565,0,0,1,4.97,1.769,5.827,5.827,0,0,1,2.011,4.7q0,3.654-4.163,5.537a17.473,17.473,0,0,1-7.25,1.43" fill="#ffbb67"/>
    <path id="パス_61" data-name="パス 61" d="M66.551,12.7q2.137-2.478,4.05-2.478a3.486,3.486,0,0,1,3.2,1.656,5.906,5.906,0,0,1,1.912-1.146,6.55,6.55,0,0,1,2.264-.383,3.732,3.732,0,0,1,3.767,2.762,30.747,30.747,0,0,1,.61,3.836q.4,2.295,1.018,7.647a1.526,1.526,0,0,1-.552,1.331,2.121,2.121,0,0,1-1.429.524,1.752,1.752,0,0,1-1.912-1.614q-.255-1.458-.524-4.121-.284-2.916-.467-4.135-.382-2.534-.977-2.534a4.584,4.584,0,0,0-1.487.651,10.824,10.824,0,0,0-1.7,1.119,40.05,40.05,0,0,0,.383,4.644,40.338,40.338,0,0,1,.4,4.644,1.8,1.8,0,0,1-.553,1.346,2.1,2.1,0,0,1-2.8,0,1.8,1.8,0,0,1-.552-1.346,46.815,46.815,0,0,0-.347-4.75A47.094,47.094,0,0,1,70.5,15.6a5.418,5.418,0,0,0-.155-1.445,11.585,11.585,0,0,0-3.3,3.158q-.07.1-.24.3-.057,2.862-.057,4.489c0,.265-.009.621-.029,1.07s-.028.78-.028,1a1.394,1.394,0,0,1-.623,1.2,2.326,2.326,0,0,1-1.4.41,1.6,1.6,0,0,1-1.629-1.047,6.252,6.252,0,0,1-.3-2.251V17.212q0-.707-.057-2.074t-.057-2.074a5.542,5.542,0,0,1,.454-2.28q.552-1.273,1.557-1.274a1.96,1.96,0,0,1,1.416.616,1.869,1.869,0,0,1,.623,1.352,5.377,5.377,0,0,0-.127,1.218" fill="#ffbb67"/>
    <path id="パス_62" data-name="パス 62" d="M89.842,18.586q0,.807.05,2.592t.05,2.591a1.8,1.8,0,0,1-.552,1.352,2.116,2.116,0,0,1-2.8,0,1.8,1.8,0,0,1-.553-1.352q0-.808-.048-2.591t-.05-2.592q0-1.26.141-3.157t.142-3.158a1.8,1.8,0,0,1,.552-1.353,2.119,2.119,0,0,1,2.8,0,1.8,1.8,0,0,1,.552,1.353q0,1.26-.142,3.158t-.142,3.157m-1.2-10.379A2.253,2.253,0,0,1,87.067,7.6a2,2,0,0,1,0-2.974,2.257,2.257,0,0,1,1.572-.609,2.232,2.232,0,0,1,1.565.609,2.009,2.009,0,0,1,0,2.974,2.227,2.227,0,0,1-1.565.609" fill="#ffbb67"/>
    <path id="パス_63" data-name="パス 63" d="M97.9,23.146q0,2.689-1.954,2.69a1.934,1.934,0,0,1-1.4-.538,1.855,1.855,0,0,1-.552-1.388V4.327a1.71,1.71,0,0,1,.6-1.345,2.1,2.1,0,0,1,1.4-.482,1.928,1.928,0,0,1,1.373.5A1.724,1.724,0,0,1,97.9,4.327Z" fill="#ffbb67"/>
    <path id="パス_64" data-name="パス 64" d="M108.62,25.878a8.985,8.985,0,0,1-5.538-1.614,5.917,5.917,0,0,1-2.378-5.027,9.721,9.721,0,0,1,1.883-6.061,6.741,6.741,0,0,1,5.65-2.747,9.331,9.331,0,0,1,4.092.793,3.432,3.432,0,0,1,2.138,3.257,3.386,3.386,0,0,1-1.741,2.761,22.583,22.583,0,0,1-3.186,1.614l-4.772,2.111a4.291,4.291,0,0,0,1.643,1.1,6.936,6.936,0,0,0,5.423-.411,4.058,4.058,0,0,1,1.883-.693,1.283,1.283,0,0,1,1.473,1.43q0,1.614-2.366,2.634a10.564,10.564,0,0,1-4.2.849m-.383-12.022a3.173,3.173,0,0,0-2.252.878,6.126,6.126,0,0,0-1.5,2.634q1.6-.694,3.186-1.374a23.341,23.341,0,0,0,3.044-1.6,5,5,0,0,0-2.478-.538" fill="#ffbb67"/>
    <path id="パス_65" data-name="パス 65" d="M133.2,7.838c-.169,0-.438-.016-.807-.05s-.665-.048-.892-.048H130.4a6.658,6.658,0,0,0-.014,1q0,10.14-1.429,14.769-1.05,3.412-3.81,3.413a8.994,8.994,0,0,1-5.211-1.813q-2.916-2.025-2.916-4.758,0-2.208,2-2.209t2,2.182q0,.836,1.436,1.791a4.938,4.938,0,0,0,2.7.955q.51,0,.736-1.883.057-.453.312-4.4.213-3.229.213-8.044c0-.132-.015-.438-.043-.92l-.326.014c-.416.019-.972.014-1.671-.014q-1.26-.057-1.67-.057a2.07,2.07,0,0,1-1.417-.509,1.825,1.825,0,0,1-.623-1.43q0-1.926,2.535-1.926.481,0,1.43.036t1.416.035q.892,0,2.669-.1t2.67-.1q3.794,0,3.794,2.11a1.945,1.945,0,0,1-.509,1.317,1.89,1.89,0,0,1-1.459.637" fill="#ffbb67"/>
    <path id="パス_66" data-name="パス 66" d="M149.385,17.042q0,.948.014,2.86t.014,2.861q0,.3.05.885c.033.391.05.687.05.884a1.689,1.689,0,0,1-.574,1.31,2.026,2.026,0,0,1-1.409.517,1.8,1.8,0,0,1-1.714-1.062,10.789,10.789,0,0,1-3.752.666,6.347,6.347,0,0,1-3.384-.845,3.922,3.922,0,0,1-1.841-2.831,41.086,41.086,0,0,1-.552-6.3,23.866,23.866,0,0,1,.425-4.183,1.745,1.745,0,0,1,1.911-1.591,2.044,2.044,0,0,1,1.4.514,1.661,1.661,0,0,1,.58,1.3,14.292,14.292,0,0,1-.205,1.942,14.205,14.205,0,0,0-.206,2.01q0,1.983.135,3.466a14.189,14.189,0,0,0,.4,2.453,4.472,4.472,0,0,0,.687.239,2.587,2.587,0,0,0,.644.085,14.813,14.813,0,0,0,3.455-.454q0-1.089-.014-2.477-.027-1.658-.029-2.38a40.337,40.337,0,0,1,.27-5.012,1.732,1.732,0,0,1,1.925-1.685,2.094,2.094,0,0,1,1.431.524,1.559,1.559,0,0,1,.552,1.317q-.27,5.394-.269,4.984" fill="#ffbb67"/>
    <path id="パス_67" data-name="パス 67" d="M163.22,26.232a1.741,1.741,0,0,1-1.94-1.714q-.2-1.458-.4-2.93a21.862,21.862,0,0,1-.212-2.932q0-.368.05-1.26c.032-.594.05-1.015.05-1.26,0-.066.009-.233.028-.5s.028-.488.028-.658q0-1.176-.567-1.176a3.154,3.154,0,0,0-2.379,1.56,11.751,11.751,0,0,0-1.827,3.953q-.025.479-.118,1.276a10.585,10.585,0,0,0-.08,1.277,12.128,12.128,0,0,1-.091,1.227,11.837,11.837,0,0,0-.092,1.225,1.836,1.836,0,0,1-.559,1.371,1.947,1.947,0,0,1-1.41.544,1.92,1.92,0,0,1-1.4-.541,1.83,1.83,0,0,1-.553-1.363c0-.268-.028-.675-.084-1.218s-.085-.949-.085-1.219q0-1.383.2-3.85t.2-3.85q0-.432-.049-1.291t-.05-1.276a1.734,1.734,0,0,1,.573-1.334,2.008,2.008,0,0,1,1.41-.526q1.853,0,1.981,2.223l.014.156a6.129,6.129,0,0,1,4.362-2.082,3.712,3.712,0,0,1,3.7,2.237,11.378,11.378,0,0,1,.68,4.489v1.006c-.01.434-.014.741-.014.92a17.219,17.219,0,0,0,.3,2.846,17.17,17.17,0,0,1,.3,2.832,1.717,1.717,0,0,1-.566,1.316,1.985,1.985,0,0,1-1.4.525" fill="#ffbb67"/>
    <path id="パス_68" data-name="パス 68" d="M171.672,18.586q0,.807.05,2.592t.05,2.591a1.8,1.8,0,0,1-.552,1.352,2.116,2.116,0,0,1-2.8,0,1.8,1.8,0,0,1-.553-1.352q0-.808-.048-2.591t-.05-2.592q0-1.26.141-3.157t.142-3.158a1.8,1.8,0,0,1,.552-1.353,2.119,2.119,0,0,1,2.8,0,1.8,1.8,0,0,1,.552,1.353q0,1.26-.142,3.158t-.142,3.157m-1.2-10.379A2.253,2.253,0,0,1,168.9,7.6a2,2,0,0,1,0-2.974,2.257,2.257,0,0,1,1.572-.609,2.232,2.232,0,0,1,1.565.609,2.009,2.009,0,0,1,0,2.974,2.227,2.227,0,0,1-1.565.609" fill="#ffbb67"/>
    <path id="パス_69" data-name="パス 69" d="M181.2,26.061a6.29,6.29,0,0,1-4.5-1.8,7.234,7.234,0,0,1-2.167-5.253,8.652,8.652,0,0,1,1.714-5.579,7.048,7.048,0,0,1,5.99-2.888,5.309,5.309,0,0,1,4.5,2.265,8.3,8.3,0,0,1,1.5,5.055,9.026,9.026,0,0,1-1.757,5.608,6.292,6.292,0,0,1-5.281,2.59m.849-11.78a3.07,3.07,0,0,0-2.747,1.586,5.763,5.763,0,0,0-.849,3.143,3.4,3.4,0,0,0,.963,2.6,2.513,2.513,0,0,0,1.784.723,3.046,3.046,0,0,0,2.138-.836,3.7,3.7,0,0,0,1.1-2.648q.182-4.559-2.394-4.573" fill="#ffbb67"/>
    <path id="パス_70" data-name="パス 70" d="M202.486,15.017q-.127,2.167-1.968,2.167a1.6,1.6,0,0,1-1.784-1.841l-.071-1.43a5.817,5.817,0,0,0-4.56,3.271l.014,7.122a1.781,1.781,0,0,1-.552,1.339,1.938,1.938,0,0,1-1.4.53,1.685,1.685,0,0,1-1.36-.566,1.889,1.889,0,0,1-.454-1.3V15.031q0-.438.029-1.309t.028-1.31a1.912,1.912,0,0,1,.475-1.324,1.717,1.717,0,0,1,1.352-.531,1.74,1.74,0,0,1,1.869,1.614,9.091,9.091,0,0,1,5.565-1.869q2.832,0,2.832,3.766c0,.482-.005.8-.014.949" fill="#ffbb67"/>
    <path id="パス_71" data-name="パス 71" d="M66.768,44.513c1.477,2.682,4.455,4.244,8.067,4.815a.7.7,0,0,1,.654.718,1.043,1.043,0,0,1-.021.254.8.8,0,0,1-.823.717A1.21,1.21,0,0,1,74.37,51,12.05,12.05,0,0,1,65.5,45.21a7.261,7.261,0,0,1-1.184,1.942A11.456,11.456,0,0,1,57.327,51a1.022,1.022,0,0,1-.252.021.792.792,0,0,1-.846-.7.945.945,0,0,1-.021-.232.674.674,0,0,1,.634-.7,10.955,10.955,0,0,0,6.04-2.936,6.886,6.886,0,0,0,1.267-1.943H56.631c-.4,0-.613-.275-.613-.718s.211-.739.613-.739h2.09V39.74c0-1.246.549-1.689,1.795-1.689H64.93V36.89c0-.465.3-.656.76-.656.528,0,.782.191.782.656v1.161h4.709c1.246,0,1.795.443,1.795,1.689v3.316h2.048c.381,0,.613.3.613.739s-.232.718-.613.718Zm-3.506-8c0,.422-.3.612-.781.612-.444,0-.761-.19-.761-.612V35.031H56.778c-.359,0-.591-.295-.591-.739,0-.423.232-.718.591-.718H61.72V32.306c0-.422.317-.611.761-.611.485,0,.781.189.781.611v1.268h5.047V32.306c0-.422.295-.611.76-.611.486,0,.782.189.782.611v1.268h5.026c.38,0,.591.275.591.718s-.211.739-.591.739H69.851v1.478c0,.422-.3.612-.782.612-.465,0-.76-.19-.76-.612V35.031H63.262ZM60.9,39.466c-.423,0-.613.127-.613.57v3.02H64.55a22.724,22.724,0,0,0,.338-3.59Zm5.533,0a25.635,25.635,0,0,1-.318,3.59h5.3v-3.02c0-.443-.211-.57-.633-.57Z" fill="#ffbb67"/>
    <path id="パス_72" data-name="パス 72" d="M95.455,31.63a1.656,1.656,0,0,1,1.225.486,22.41,22.41,0,0,0,8.279,6.336.861.861,0,0,1,.506.781.816.816,0,0,1-.084.38.779.779,0,0,1-.719.528,1.132,1.132,0,0,1-.549-.148,24.017,24.017,0,0,1-8.383-6.525c-.106-.106-.19-.17-.275-.17a.409.409,0,0,0-.254.149,23.709,23.709,0,0,1-8.488,6.694.755.755,0,0,1-.36.085.88.88,0,0,1-.76-.508.84.84,0,0,1-.105-.379.9.9,0,0,1,.527-.781,22.182,22.182,0,0,0,8.215-6.442,1.626,1.626,0,0,1,1.225-.486M94.378,43.837a38.931,38.931,0,0,1-2.6,4.92c2.682-.168,5.363-.4,8.025-.781-.655-.781-1.352-1.541-2.007-2.2a.648.648,0,0,1-.19-.443.631.631,0,0,1,.295-.529.92.92,0,0,1,.571-.211.735.735,0,0,1,.57.232,39.347,39.347,0,0,1,4.393,5.111.707.707,0,0,1,.148.444.843.843,0,0,1-.338.654.96.96,0,0,1-.549.19.75.75,0,0,1-.633-.317c-.338-.506-.74-1.056-1.162-1.6-4.182.655-9.018,1.056-13.473,1.31h-.043a.788.788,0,0,1-.8-.8V49.75c0-.485.232-.782.675-.8.887-.021,1.795-.064,2.682-.107a27.951,27.951,0,0,0,2.555-5H86.9c-.379,0-.612-.317-.612-.76,0-.465.233-.781.612-.781h17.106c.4,0,.613.316.613.76,0,.464-.211.781-.613.781Zm5.428-5.6c.38,0,.591.358.591.781s-.211.782-.591.782h-8.68c-.38,0-.591-.36-.591-.782s.211-.781.591-.781Z" fill="#ffbb67"/>
    <path id="パス_73" data-name="パス 73" d="M115.906,36.826c-.381,0-.571-.317-.571-.739s.19-.7.571-.7h6.779c.359,0,.549.274.549.7s-.19.739-.549.739Zm.739-3.084c-.338,0-.55-.3-.55-.7,0-.423.212-.7.55-.7h5.575c.359,0,.57.274.57.7,0,.4-.211.7-.57.7Zm0,6.125c-.359,0-.528-.338-.528-.718s.169-.676.528-.676h5.491c.338,0,.527.3.527.676s-.189.718-.527.718Zm0,3.02c-.359,0-.528-.338-.528-.7,0-.381.169-.7.528-.7h5.491c.338,0,.527.3.527.675s-.189.718-.527.718Zm6.018,6.378c0,1.077-.527,1.52-1.626,1.52h-3.231c-1.1,0-1.625-.443-1.625-1.52V46.013c0-1.078.527-1.5,1.625-1.5h3.231c1.1,0,1.626.422,1.626,1.5Zm-4.435-3.443c-.379,0-.57.106-.57.508v2.618c0,.4.191.507.57.507h2.387c.38,0,.57-.106.57-.507V46.33c0-.4-.19-.508-.57-.508Zm5.724-6.187c-.38,0-.591-.274-.591-.718,0-.423.211-.718.591-.718H128.2V34.715c-1.331.253-2.682.422-3.907.548h-.085a.658.658,0,0,1-.7-.675v-.106a.613.613,0,0,1,.633-.654,38.727,38.727,0,0,0,8.742-1.838.833.833,0,0,1,.317-.063.668.668,0,0,1,.655.464.813.813,0,0,1,.085.359.653.653,0,0,1-.465.634,31.971,31.971,0,0,1-3.759,1.034V38.2h4.519c.38,0,.592.295.592.718s-.212.718-.592.718h-4.519v3.443h2.344c1.267,0,1.858.443,1.858,1.689V49.1c0,1.246-.591,1.689-1.858,1.689h-6.124c-1.267,0-1.858-.443-1.858-1.689V44.767c0-1.246.591-1.689,1.858-1.689h2.26V39.635Zm7.729,9.693c.465,0,.676-.127.676-.592V45.1c0-.465-.211-.592-.676-.592h-5.364c-.464,0-.675.127-.675.592v3.631c0,.465.211.592.675.592Z" fill="#ffbb67"/>
    <path id="パス_74" data-name="パス 74" d="M147.846,42.064a23.479,23.479,0,0,1-2.112,1.246.966.966,0,0,1-.423.106.663.663,0,0,1-.59-.381,1.115,1.115,0,0,1-.106-.422.657.657,0,0,1,.4-.592,22.056,22.056,0,0,0,4.773-3.168h-4.541a.544.544,0,0,1-.57-.611c0-.4.19-.656.57-.656h3.738v-2.28H146.03a.661.661,0,0,1,0-1.31h2.956V32.244c0-.381.317-.592.739-.592.444,0,.74.211.74.592V34h1.9a.562.562,0,0,1,.571.634.6.6,0,0,1-.571.676h-1.9v2.28h.676a21.082,21.082,0,0,0,3.42-4.645.714.714,0,0,1,.634-.381.836.836,0,0,1,.38.085.748.748,0,0,1,.422.634.614.614,0,0,1-.084.338,22.443,22.443,0,0,1-2.83,3.969H154.6a.511.511,0,0,1,.527.57V38.2a.635.635,0,0,1-.612.654h-2.661a28.014,28.014,0,0,1-2.26,1.965h3.084a1.1,1.1,0,0,1,1.225,1.055,1.081,1.081,0,0,1-.36.8,11.285,11.285,0,0,1-2.512,1.816v.465c1.2-.127,2.323-.317,3.315-.486a.4.4,0,0,1,.148-.022.731.731,0,0,1,.633.74.652.652,0,0,1-.57.655c-1.055.189-2.28.38-3.526.527v2.978c0,1.268-.7,1.732-1.986,1.732a9.211,9.211,0,0,1-1.731-.148.654.654,0,0,1-.528-.675.724.724,0,0,1,.021-.212.654.654,0,0,1,.654-.591.266.266,0,0,1,.127.021,6.252,6.252,0,0,0,1.183.148c.655,0,.782-.085.782-.655V46.541c-1.373.127-2.767.232-4.076.316h-.043c-.379,0-.633-.232-.676-.7v-.1c0-.4.211-.655.549-.655,1.373-.042,2.83-.127,4.246-.275v-1.1c0-.359.316-.549.76-.549h.042a7.854,7.854,0,0,0,1.668-1.076.313.313,0,0,0,.106-.17c0-.1-.127-.168-.3-.168Zm14.867-5.111a21.023,21.023,0,0,1-.676,4.455,14.521,14.521,0,0,1-1.816,4.14,15.048,15.048,0,0,0,3.928,3.907.774.774,0,0,1,.338.633.992.992,0,0,1-.887.951.83.83,0,0,1-.465-.17,17.57,17.57,0,0,1-3.865-3.948,18.087,18.087,0,0,1-4.518,4.012,1.1,1.1,0,0,1-.613.19.77.77,0,0,1-.633-.338.809.809,0,0,1-.17-.506.817.817,0,0,1,.381-.7,16.4,16.4,0,0,0,4.666-4.076,18.074,18.074,0,0,1-1.857-5.28,13.361,13.361,0,0,1-.866,1.415.638.638,0,0,1-.55.3.91.91,0,0,1-.823-.8.9.9,0,0,1,.169-.487,20.134,20.134,0,0,0,3.062-8.341c.084-.444.316-.612.676-.612a.685.685,0,0,1,.211.02c.443.064.676.275.676.656v.147a27.67,27.67,0,0,1-.676,3h5.2a.613.613,0,0,1,.613.7c0,.422-.191.739-.592.739Zm-4.773,0c-.127.422-.295.824-.465,1.246a21.86,21.86,0,0,0,1.859,5.828,14.634,14.634,0,0,0,1.479-4.054,20.8,20.8,0,0,0,.359-3.02Z" fill="#ffbb67"/>
    <path id="パス_75" data-name="パス 75" d="M193.131,49.033c.381,0,.592.316.592.739s-.211.739-.592.739H175.055c-.381,0-.592-.317-.592-.739s.211-.739.592-.739h8.109v-2.6h-6c-.359,0-.57-.316-.57-.739s.211-.7.57-.7h6V43.5c0-.359.233-.676.782-.676s.822.295.822.676V45h6.294c.359,0,.571.273.571.7s-.212.739-.571.739h-6.294v2.6ZM191.379,33.49c1.288,0,1.858.528,1.858,1.689v1.964c0,.423-.359.634-.866.634s-.823-.211-.823-.634V35.475c0-.4-.212-.528-.676-.528H177.42c-.443,0-.718.127-.718.528v1.646c0,.4-.338.613-.845.613s-.845-.211-.845-.633V35.179c0-1.161.57-1.689,1.838-1.689h6.272V32.138c0-.4.275-.654.845-.654s.8.253.8.654V33.49Zm-13.41,4.772c-.359,0-.57-.274-.57-.7,0-.4.211-.7.57-.7h12.27c.379,0,.57.3.57.7,0,.422-.191.7-.57.7h-7.328a24.87,24.87,0,0,1-1.647,2.788c2.3-.042,4.582-.085,6.883-.232-.463-.4-.908-.781-1.33-1.1a.492.492,0,0,1-.168-.379.7.7,0,0,1,.253-.528.829.829,0,0,1,.528-.212.846.846,0,0,1,.465.169,33.225,33.225,0,0,1,3.611,3.168.741.741,0,0,1,.19.485.871.871,0,0,1-.824.782.7.7,0,0,1-.549-.274c-.274-.3-.592-.613-.93-.93-4.033.359-8.637.465-12.839.486a.641.641,0,0,1-.612-.718v-.106a.573.573,0,0,1,.57-.633h.042c.972.021,1.943.021,2.935.021a17.569,17.569,0,0,0,1.648-2.788Z" fill="#ffbb67"/>
  </g>
</svg>
